<?xml version="1.0" encoding="UTF-8"?>
<svg id="Layer_1" data-name="Layer 1" xmlns="http://www.w3.org/2000/svg" viewBox="0 0 486.05 481.84">
  <defs>
    <style>
      .cls-1 {
        fill: #fff;
      }

      .cls-2 {
        fill: #4a569a;
        stroke: #4a569a;
        stroke-miterlimit: 10;
        stroke-width: 5px;
      }
    </style>
  </defs>
  <path class="cls-1" d="M139.72,49.4c2.67-.44,187.56,8.89,187.56,8.89,0,0,68,34.22,68,36s40.44,126.67,40.44,129.33-24.44,143.56-24.44,143.56l-85.53,99.78-5.58,4.22s-87.11,24-149.33,0S37.05,322.73,37.05,322.73l16.89-186.22,85.78-87.11Z"/>
  <path class="cls-2" d="M170.59,468.93S29.93,438.27,4.59,272.27c0,0-33.33-180.67,166-259.33,0,0,156.67-52.67,256.67,78.67,0,0,114.67,122.67,16.67,279.33,0,0-48,78.67-125.33,98,0,0-14.22,2.67-14.44-16.22l-.89-72.89s0-19.33-15.33-32.22c0,0,98.89,2,106.89-94.89,0,0,10.67-56.44-22.67-87.56,0,0,11.56-30.22-2.89-65.33,0,0-34.67-3.11-66,26.89,0,0-65.33-22.44-119.56-.44,0,0-25.33-24.22-66.89-25.33,0,0-14,26.22-2.22,63.56,0,0-38,29.78-20,108,0,0,8.67,68.67,103.11,75.56,0,0-14.22,14.44-13.33,31.33,0,0-32,18.89-56-2.89,0,0-11.11-9.11-14.67-16.67,0,0-12.44-27.11-43.33-23.33,0,0-8.44,3.11-.22,10,0,0,23.78,11.56,34.22,45.56,0,0,6.22,32.67,78.22,21.78v46.67s-4.44,10-12,8.44Z"/>
</svg>