<svg width="80" height="80" viewBox="0 0 80 80" fill="none" xmlns="http://www.w3.org/2000/svg">
<g clip-path="url(#clip0_80_18)">
<path fill-rule="evenodd" clip-rule="evenodd" d="M0 0H80V80H0V0Z" fill="#F7DF1E"/>
<path fill-rule="evenodd" clip-rule="evenodd" d="M21.0352 66.8555L27.1549 63.1511C28.3333 65.2474 29.4076 67.0183 31.9857 67.0183C34.4531 67.0183 36.0156 66.0547 36.0156 62.2917V36.7253H43.5352V62.3959C43.5352 70.1823 38.9714 73.724 32.3112 73.724C26.2956 73.724 22.806 70.612 21.0352 66.8555ZM47.6172 66.0482L53.737 62.5066C55.3516 65.1368 57.4414 67.0704 61.1458 67.0704C64.2578 67.0704 66.25 65.5144 66.25 63.3659C66.25 60.7878 64.2122 59.8763 60.7747 58.3724L58.8932 57.5651C53.4701 55.2539 49.8698 52.3568 49.8698 46.237C49.8698 40.599 54.1667 36.3021 60.8789 36.3021C65.6576 36.3021 69.0951 37.9688 71.5625 42.3178L65.7096 46.0743C64.4206 43.7631 63.0273 42.8516 60.8789 42.8516C58.6784 42.8516 57.2786 44.2448 57.2786 46.0743C57.2786 48.3269 58.6719 49.2448 61.8945 50.6381L63.776 51.4454C70.1693 54.1862 73.763 56.9792 73.763 63.2618C73.763 70.0261 68.444 73.7305 61.3021 73.7305C54.3294 73.7305 49.8177 70.3972 47.6172 66.0482Z" fill="black"/>
</g>
<defs>
<clipPath id="clip0_80_18">
<rect width="80" height="80" fill="white"/>
</clipPath>
</defs>
</svg>
