<svg width="75" height="75" viewBox="0 0 75 75" fill="none" xmlns="http://www.w3.org/2000/svg">
<g clip-path="url(#clip0_80_27)">
<path fill-rule="evenodd" clip-rule="evenodd" d="M75 37.5103C75 31.9314 68.7805 26.6472 59.2407 23.3643C61.4441 12.4463 60.4614 3.76268 56.1523 0.980079C55.1575 0.328977 53.9978 0.0205611 52.7283 0.0205611V3.85178C53.4302 3.85178 53.9978 4.00941 54.4739 4.29727C56.5552 5.63374 57.4524 10.7329 56.7505 17.2919C56.5796 18.9025 56.3049 20.6022 55.9692 22.3362C52.9724 21.5138 49.7009 20.8764 46.2647 20.4651C44.2017 17.2919 42.0593 14.4065 39.9048 11.8843C44.8853 6.6755 49.5605 3.83122 52.7405 3.83122V0C48.5352 0 43.0359 3.36516 37.4695 9.20451C31.9031 3.39943 26.4038 0.068537 22.1985 0.068537V3.89975C25.3601 3.89975 30.0537 6.73033 35.0403 11.898C32.8979 14.4202 30.7617 17.285 28.7292 20.4651C25.2747 20.8764 22.0032 21.5138 19.0063 22.3499C18.6523 20.6365 18.396 18.971 18.2129 17.3741C17.4927 10.8151 18.3838 5.71598 20.4468 4.35895C20.9045 4.05053 21.5027 3.91346 22.2046 3.91346V0.0890981C20.9229 0.0890981 19.7571 0.397514 18.75 1.04862C14.4531 3.83122 13.4888 12.5011 15.7104 23.3848C6.18896 26.6746 0 31.9451 0 37.5103C0 43.0892 6.21948 48.3734 15.7593 51.6563C13.5559 62.5743 14.5386 71.2579 18.8477 74.0405C19.8425 74.6916 21.0022 75 22.29 75C26.4954 75 31.9946 71.6348 37.561 65.7955C43.1274 71.6006 48.6267 74.9315 52.832 74.9315C54.1138 74.9315 55.2795 74.623 56.2866 73.9719C60.5835 71.1893 61.5478 62.5194 59.3262 51.6357C68.811 48.3597 75 43.0686 75 37.5103ZM44.4702 37.5103C44.4702 33.1787 41.3452 29.6628 37.4817 29.6628C33.6243 29.6628 30.4932 33.1719 30.4932 37.5103C30.4932 41.8487 33.6182 45.3578 37.4817 45.3578C41.3452 45.3509 44.4702 41.8418 44.4702 37.5103ZM55.0964 26.0578C54.5288 28.2715 53.8269 30.5538 53.0334 32.8361C52.4048 31.4653 51.7517 30.0877 51.0315 28.717C50.3296 27.3463 49.5789 26.0029 48.8281 24.7007C51.001 25.064 53.0945 25.5095 55.0964 26.0578ZM48.0957 44.3434C46.9055 46.66 45.6787 48.86 44.4092 50.9024C42.1326 51.1286 39.8254 51.2451 37.5 51.2451C35.1929 51.2451 32.8857 51.1217 30.6213 50.9161C29.3518 48.8737 28.1128 46.6942 26.9226 44.3914C25.7629 42.1434 24.707 39.8611 23.7427 37.5583C24.6887 35.2554 25.7629 32.9594 26.9043 30.7114C28.0945 28.3949 29.3213 26.1948 30.5908 24.1524C32.8674 23.9263 35.1746 23.8097 37.5 23.8097C39.8071 23.8097 42.1143 23.9331 44.3787 24.1387C45.6482 26.1811 46.8872 28.3606 48.0774 30.6634C49.2371 32.9115 50.293 35.1937 51.2573 37.4966C50.293 39.7926 49.2432 42.0885 48.0957 44.3434ZM53.0334 42.1091C53.8574 44.412 54.5593 46.7079 55.1453 48.9423C53.1433 49.4905 51.0315 49.9566 48.8464 50.313C49.5972 48.9902 50.3418 47.6332 51.0498 46.2419C51.7456 44.8712 52.4048 43.4799 53.0334 42.1091ZM37.5305 60.4222C36.1084 58.7773 34.6863 56.9405 33.2825 54.9324C34.6558 55.0009 36.0657 55.0557 37.4878 55.0557C38.9221 55.0557 40.3442 55.0215 41.7358 54.9324C40.3564 56.9405 38.9343 58.7773 37.5305 60.4222ZM26.1597 50.313C23.9868 49.9497 21.8933 49.5043 19.8914 48.956C20.459 46.7422 21.1609 44.4599 21.9543 42.1777C22.583 43.5484 23.2361 44.926 23.9563 46.2967C24.6765 47.6743 25.4089 49.0108 26.1597 50.313ZM37.4512 14.5915C38.8733 16.2364 40.2954 18.0732 41.6992 20.0813C40.3259 20.0128 38.916 19.958 37.4939 19.958C36.0596 19.958 34.6375 19.9922 33.2459 20.0813C34.6252 18.0732 36.0474 16.2364 37.4512 14.5915ZM26.1414 24.7007C25.3906 26.0235 24.646 27.3805 23.938 28.7718C23.2361 30.1426 22.5769 31.5202 21.9482 32.8909C21.1243 30.588 20.4224 28.2921 19.8364 26.0578C21.8445 25.5232 23.9563 25.064 26.1414 24.7007ZM12.3047 46.1939C6.89087 43.6032 3.39355 40.2038 3.39355 37.5103C3.39355 34.8168 6.89697 31.3968 12.3047 28.8266C13.6169 28.1893 15.0574 27.6273 16.5405 27.0927C17.4133 30.4578 18.5608 33.9601 19.9829 37.5445C18.5791 41.1153 17.4438 44.597 16.5894 47.9485C15.0757 47.4139 13.6353 46.8313 12.3047 46.1939ZM20.5322 70.7233C18.4509 69.3868 17.5537 64.2877 18.2556 57.7287C18.4265 56.1181 18.7012 54.4184 19.0369 52.6844C22.0337 53.5068 25.3052 54.1442 28.7415 54.5554C30.8044 57.7287 32.9468 60.6141 35.1013 63.1363C30.1147 68.3382 25.4395 71.1893 22.2595 71.1893C21.5698 71.1688 20.99 71.018 20.5322 70.7233ZM56.7932 57.6464C57.5134 64.2054 56.6223 69.3046 54.5593 70.6616C54.1016 70.97 53.5034 71.1071 52.8015 71.1071C49.6399 71.1071 44.9463 68.2765 39.9597 63.1088C42.1021 60.5867 44.2383 57.7218 46.2708 54.5417C49.7253 54.1305 52.9968 53.4931 55.9937 52.6501C56.3477 54.3841 56.6223 56.0495 56.7932 57.6464ZM62.677 46.1939C61.3647 46.8313 59.9243 47.3933 58.4412 47.9279C57.5684 44.5627 56.4209 41.0605 54.9988 37.476C56.4026 33.9052 57.5378 30.4236 58.3923 27.0721C59.906 27.6067 61.3403 28.1893 62.6892 28.8198C68.103 31.4105 71.6003 34.8099 71.6003 37.5034C71.5881 40.2038 68.0908 43.6169 62.677 46.1939Z" fill="#00D8FF"/>
</g>
<defs>
<clipPath id="clip0_80_27">
<rect width="75" height="75" fill="white"/>
</clipPath>
</defs>
</svg>
