<svg width="85" height="80" viewBox="0 0 85 80" fill="none" xmlns="http://www.w3.org/2000/svg">
<g clip-path="url(#clip0_80_27)">
<path fill-rule="evenodd" clip-rule="evenodd" d="M85 40.011C85 34.0601 77.9513 28.4236 67.1395 24.9219C69.6366 13.2761 68.523 4.01352 63.6393 1.04542C62.5118 0.350909 61.1975 0.0219318 59.7587 0.0219318V4.10856C60.5542 4.10856 61.1975 4.27671 61.7371 4.58375C64.0959 6.00932 65.1127 11.4484 64.3172 18.4447C64.1235 20.1627 63.8123 21.9757 63.4318 23.8253C60.0354 22.948 56.3277 22.2681 52.4333 21.8295C50.0952 18.4447 47.6672 15.3669 45.2254 12.6766C50.87 7.12053 56.1686 4.08663 59.7725 4.08663V0C55.0065 0 48.774 3.58951 42.4654 9.81815C36.1568 3.62606 29.9243 0.0731061 25.1583 0.0731061V4.15974C28.7415 4.15974 34.0609 7.17902 39.7123 12.6912C37.2843 15.3815 34.8633 18.4374 32.5598 21.8295C28.6446 22.2681 24.9369 22.948 21.5405 23.8399C21.1393 22.0122 20.8488 20.2358 20.6413 18.5324C19.825 11.5361 20.835 6.09705 23.173 4.64955C23.6918 4.32057 24.3697 4.17436 25.1652 4.17436V0.0950379C23.7126 0.0950379 22.3914 0.424015 21.25 1.11852C16.3802 4.08663 15.2873 13.3345 17.8052 24.9438C7.01416 28.4529 0 34.0747 0 40.011C0 45.9618 7.04875 51.5983 17.8605 55.1001C15.3634 66.7459 16.4771 76.0084 21.3607 78.9765C22.4882 79.671 23.8025 80 25.262 80C30.0281 80 36.2606 76.4105 42.5692 70.1818C48.8778 76.3739 55.1103 79.9269 59.8763 79.9269C61.3289 79.9269 62.6502 79.5979 63.7915 78.9034C68.6613 75.9353 69.7542 66.6874 67.2363 55.0781C77.9858 51.5837 85 45.9399 85 40.011ZM50.3996 40.011C50.3996 35.3907 46.8579 31.6403 42.4793 31.6403C38.1075 31.6403 34.5589 35.3833 34.5589 40.011C34.5589 44.6386 38.1006 48.3816 42.4793 48.3816C46.8579 48.3743 50.3996 44.6313 50.3996 40.011ZM62.4426 27.7949C61.7993 30.1563 61.0038 32.5907 60.1046 35.0251C59.3921 33.563 58.6519 32.0936 57.8357 30.6315C57.0402 29.1693 56.1894 27.7365 55.3385 26.3474C57.8011 26.7349 60.1737 27.2101 62.4426 27.7949ZM54.5085 47.2996C53.1596 49.7706 51.7692 52.1173 50.3304 54.2959C47.7502 54.5371 45.1355 54.6614 42.5 54.6614C39.8853 54.6614 37.2705 54.5298 34.7042 54.3105C33.2654 52.132 31.8612 49.8072 30.5123 47.3508C29.198 44.9529 28.0013 42.5185 26.9084 40.0621C27.9806 37.6058 29.198 35.1567 30.4915 32.7588C31.8404 30.2879 33.2308 27.9411 34.6696 25.7626C37.2498 25.5213 39.8645 25.3971 42.5 25.3971C45.1147 25.3971 47.7295 25.5286 50.2958 25.748C51.7346 27.9265 53.1388 30.2513 54.4877 32.7077C55.802 35.1055 56.9987 37.54 58.0916 39.9963C56.9987 42.4454 55.8089 44.8944 54.5085 47.2996ZM60.1046 44.9164C61.0384 47.3727 61.8339 49.8218 62.498 52.2051C60.2291 52.7899 57.8357 53.287 55.3593 53.6672C56.2101 52.2562 57.054 50.8087 57.8564 49.3247C58.645 47.8626 59.3921 46.3785 60.1046 44.9164ZM42.5346 64.4503C40.9229 62.6958 39.3111 60.7365 37.7201 58.5945C39.2765 58.6676 40.8744 58.7261 42.4862 58.7261C44.1117 58.7261 45.7235 58.6896 47.3006 58.5945C45.7373 60.7365 44.1256 62.6958 42.5346 64.4503ZM29.6476 53.6672C27.1851 53.2797 24.8124 52.8045 22.5435 52.2197C23.1868 49.8584 23.9823 47.4239 24.8816 44.9895C25.5941 46.4516 26.3342 47.921 27.1505 49.3832C27.9667 50.8526 28.7968 52.2782 29.6476 53.6672ZM42.4447 15.5643C44.0564 17.3188 45.6681 19.2781 47.2591 21.4201C45.7027 21.347 44.1048 21.2885 42.4931 21.2885C40.8675 21.2885 39.2558 21.325 37.6786 21.4201C39.2419 19.2781 40.8537 17.3188 42.4447 15.5643ZM29.6269 26.3474C28.776 27.7584 27.9321 29.2059 27.1297 30.6899C26.3342 32.1521 25.5872 33.6215 24.8747 35.0836C23.9408 32.6273 23.1453 30.1782 22.4813 27.7949C24.7571 27.2247 27.1505 26.7349 29.6269 26.3474ZM13.9453 49.2735C7.80965 46.5101 3.84603 42.884 3.84603 40.011C3.84603 37.1379 7.81657 33.4899 13.9453 30.7484C15.4325 30.0685 17.065 29.4691 18.7459 28.8988C19.7351 32.4883 21.0356 36.2241 22.6473 40.0475C21.0563 43.8563 19.7697 47.5701 18.8013 51.145C17.0858 50.5748 15.4533 49.9534 13.9453 49.2735ZM23.2699 75.4382C20.9111 74.0126 19.8942 68.5735 20.6897 61.5773C20.8834 59.8593 21.1947 58.0462 21.5751 56.1967C24.9715 57.0739 28.6792 57.7538 32.5737 58.1924C34.9117 61.5773 37.3397 64.655 39.7815 67.3453C34.13 72.8941 28.8314 75.9353 25.2275 75.9353C24.4458 75.9134 23.7887 75.7525 23.2699 75.4382ZM64.3656 61.4895C65.1819 68.4858 64.172 73.9249 61.8339 75.3724C61.3151 75.7014 60.6372 75.8476 59.8417 75.8476C56.2585 75.8476 50.9391 72.8283 45.2877 67.3161C47.7157 64.6258 50.1367 61.57 52.4402 58.1778C56.3554 57.7392 60.0631 57.0593 63.4595 56.1601C63.8607 58.0097 64.172 59.7862 64.3656 61.4895ZM71.0339 49.2735C69.5467 49.9534 67.9142 50.5529 66.2333 51.1231C65.2441 47.5336 63.9437 43.7979 62.332 39.9744C63.9229 36.1656 65.2096 32.4518 66.178 28.8769C67.8935 29.4471 69.519 30.0685 71.0478 30.7411C77.1834 33.5045 81.1471 37.1306 81.1471 40.0037C81.1332 42.884 77.1696 46.5247 71.0339 49.2735Z" fill="#00D8FF"/>
</g>
<defs>
<clipPath id="clip0_80_27">
<rect width="85" height="80" fill="white"/>
</clipPath>
</defs>
</svg>
